<svg width="357" height="48" viewBox="0 0 357 48" fill="none" xmlns="http://www.w3.org/2000/svg">
<path d="M280.854 40.1052H286.541V8.63129H280.854V19.8781C278.801 17.8254 276.449 16.7991 273.712 16.7991C267.811 16.7991 263.021 21.6741 263.021 28.7729C263.021 35.7433 268.068 40.7039 273.841 40.7039C276.706 40.7039 278.844 39.6776 280.854 37.7104V40.1052ZM274.867 22.0163C278.459 22.0163 281.11 24.7104 281.11 28.6874C281.11 32.8354 278.374 35.4867 274.867 35.4867C271.318 35.4867 268.752 32.6216 268.752 28.7301C268.752 25.0097 271.104 22.0163 274.867 22.0163Z" fill="white"/>
<path d="M309.084 40.1052H314.772V17.3978H309.084V19.8781C307.032 17.8254 304.68 16.7991 301.943 16.7991C296.042 16.7991 291.252 21.6741 291.252 28.7729C291.252 35.7433 296.298 40.7039 302.071 40.7039C304.936 40.7039 307.075 39.6776 309.084 37.7104V40.1052ZM303.098 22.0163C306.69 22.0163 309.341 24.7104 309.341 28.6874C309.341 32.8354 306.604 35.4867 303.098 35.4867C299.548 35.4867 296.982 32.6216 296.982 28.7301C296.982 25.0097 299.334 22.0163 303.098 22.0163Z" fill="white"/>
<path d="M321.193 17.3978H318.285V22.2728H321.193V40.1052H326.881V22.2728H330.259V17.3978H326.881V9.01616H321.193V17.3978Z" fill="white"/>
<path d="M349.836 33.4341C348.254 34.9736 346.629 35.6578 344.192 35.6578C340.942 35.6578 338.376 33.7762 337.82 30.3979H356.123C356.123 29.8847 356.165 29.6282 356.165 29.115C356.165 21.9307 351.29 16.7991 344.106 16.7991C336.793 16.7991 332.303 22.5294 332.303 28.7301C332.303 35.4012 336.965 40.7039 344.192 40.7039C348.981 40.7039 352.188 39.1644 354.626 35.7006L349.836 33.4341ZM338.076 25.9077C339.188 23.0426 341.369 21.6314 344.192 21.6314C347.228 21.6314 349.665 23.2564 350.435 25.9077H338.076Z" fill="white"/>
<path d="M198.751 40.1052H204.439V17.3978H198.751V19.8781C196.699 17.8254 194.347 16.7991 191.61 16.7991C185.708 16.7991 180.919 21.6741 180.919 28.7729C180.919 35.7433 185.965 40.7039 191.738 40.7039C194.603 40.7039 196.741 39.6776 198.751 37.7104V40.1052ZM192.764 22.0163C196.357 22.0163 199.008 24.7104 199.008 28.6874C199.008 32.8354 196.271 35.4867 192.764 35.4867C189.215 35.4867 186.649 32.6216 186.649 28.7301C186.649 25.0097 189.001 22.0163 192.764 22.0163Z" fill="white" fill-opacity="0.7"/>
<path d="M215.863 17.3978H210.176V40.1052H215.863V30.4407C215.863 28.0887 215.821 26.036 216.975 24.1972C217.873 22.786 219.242 22.0163 220.824 22.0163C224.288 22.0163 224.673 24.8814 224.673 29.3716V40.1052H230.36V24.5821C230.36 19.707 226.811 16.7991 222.577 16.7991C220.054 16.7991 218.044 17.8682 215.863 19.707V17.3978Z" fill="white" fill-opacity="0.7"/>
<path d="M252.623 40.1052H258.311V8.63129H252.623V19.8781C250.571 17.8254 248.219 16.7991 245.482 16.7991C239.58 16.7991 234.791 21.6741 234.791 28.7729C234.791 35.7433 239.837 40.7039 245.61 40.7039C248.475 40.7039 250.613 39.6776 252.623 37.7104V40.1052ZM246.636 22.0163C250.229 22.0163 252.88 24.7104 252.88 28.6874C252.88 32.8354 250.143 35.4867 246.636 35.4867C243.087 35.4867 240.521 32.6216 240.521 28.7301C240.521 25.0097 242.873 22.0163 246.636 22.0163Z" fill="white" fill-opacity="0.7"/>
<path d="M91.9659 17.3982H89.058V22.2733H91.9659V40.1056H97.6534V22.2733H101.032V17.3982H97.6534V9.01658H91.9659V17.3982Z" fill="white"/>
<path d="M103.546 40.1056H109.234V17.3982H103.546V40.1056ZM106.369 8.03302C104.402 8.03302 102.734 9.52974 102.734 11.4969C102.734 13.5923 104.273 15.4311 106.369 15.4311C108.379 15.4311 110.004 13.8061 110.004 11.7962C110.004 9.74356 108.421 8.03302 106.369 8.03302Z" fill="white"/>
<path d="M134.646 28.9016C134.646 24.2404 136.698 22.0167 139.563 22.0167C142.129 22.0167 143.455 23.8555 143.455 27.5759V40.1056H149.142V26.8062C149.142 23.8127 148.971 21.3325 147.475 19.4509C146.192 17.8259 143.925 16.7995 141.402 16.7995C137.981 16.7995 135.886 18.2107 133.79 20.8621C132.379 18.1252 129.984 16.7995 127.162 16.7995C124.468 16.7995 121.988 17.9114 120.063 20.0068V17.3982H114.376V40.1056H120.063V28.9871C120.063 24.3259 122.116 22.0167 124.938 22.0167C128.103 22.0167 128.958 24.7108 128.958 29.1154V40.1056H134.646V28.9016Z" fill="white"/>
<path d="M171.098 33.4345C169.516 34.974 167.891 35.6582 165.454 35.6582C162.204 35.6582 159.638 33.7766 159.082 30.3983H177.385C177.385 29.8852 177.427 29.6286 177.427 29.1154C177.427 21.9312 172.552 16.7995 165.368 16.7995C158.056 16.7995 153.565 22.5298 153.565 28.7305C153.565 35.4016 158.227 40.7043 165.454 40.7043C170.243 40.7043 173.45 39.1648 175.888 35.701L171.098 33.4345ZM159.338 25.9082C160.45 23.043 162.631 21.6318 165.454 21.6318C168.49 21.6318 170.927 23.2568 171.697 25.9082H159.338Z" fill="white"/>
<path fill-rule="evenodd" clip-rule="evenodd" d="M18.1696 31.7414L16.3706 37.2781C16.3023 37.5046 16.1901 37.7155 16.0404 37.8986C15.8907 38.0818 15.7064 38.2336 15.4981 38.3455C15.2898 38.4574 15.0615 38.5271 14.8263 38.5507C14.5911 38.5743 14.3535 38.5513 14.1273 38.4829L2.41418 34.6771C2.19098 34.5994 1.98529 34.4784 1.80887 34.3211C1.63244 34.1638 1.48874 33.9732 1.38596 33.7602C1.28319 33.5472 1.22336 33.3161 1.20989 33.0799C1.19642 32.8437 1.22958 32.6072 1.30747 32.3838L3.10646 26.8471C3.24447 26.3893 3.55836 26.005 3.97916 25.7785C4.39997 25.5521 4.89329 25.502 5.35077 25.6392L17.0639 29.4451C17.5147 29.6029 17.8843 29.9334 18.0916 30.364C18.299 30.7945 18.327 31.2899 18.1696 31.7414Z" fill="#1F9DD8"/>
<path fill-rule="evenodd" clip-rule="evenodd" d="M28.8301 20.1271L24.1203 23.549C23.9319 23.6921 23.7172 23.7967 23.4884 23.8569C23.2596 23.9171 23.0213 23.9316 22.787 23.8997C22.5527 23.8677 22.327 23.79 22.1228 23.6708C21.9187 23.5516 21.7401 23.3934 21.5972 23.2051L14.3581 13.2414C14.2232 13.0473 14.1279 12.8285 14.0777 12.5975C14.0274 12.3665 14.0232 12.1279 14.0652 11.8952C14.1072 11.6625 14.1947 11.4403 14.3226 11.2413C14.4505 11.0423 14.6164 10.8705 14.8107 10.7355L19.5205 7.31363C19.9013 7.02442 20.3811 6.89799 20.8546 6.96212C21.3282 7.02624 21.7568 7.27568 22.0462 7.65563L29.2853 17.6194C29.5572 18.0121 29.662 18.4967 29.5766 18.9669C29.4913 19.4371 29.2228 19.8544 28.8301 20.1271Z" fill="#78B942"/>
<path fill-rule="evenodd" clip-rule="evenodd" d="M44.2811 16.9974H38.4594C38.2229 17.0025 37.9877 16.9609 37.7673 16.8751C37.5468 16.7893 37.3454 16.661 37.1747 16.4974C37.0039 16.3339 36.867 16.1383 36.7719 15.9219C36.6768 15.7055 36.6253 15.4725 36.6204 15.2362V2.92032C36.6253 2.68403 36.6768 2.45102 36.7719 2.23462C36.867 2.01821 37.0039 1.82264 37.1747 1.65909C37.3454 1.49553 37.5468 1.36719 37.7673 1.28141C37.9877 1.19562 38.2229 1.15406 38.4594 1.1591H44.2811C44.7591 1.14891 45.2216 1.32867 45.567 1.65889C45.9124 1.98912 46.1125 2.44282 46.1234 2.92032V15.2362C46.1125 15.7137 45.9124 16.1674 45.567 16.4976C45.2216 16.8279 44.7591 17.0076 44.2811 16.9974Z" fill="#FFC807"/>
<path fill-rule="evenodd" clip-rule="evenodd" d="M58.6212 23.5473L53.9114 20.1254C53.717 19.9904 53.5512 19.8186 53.4233 19.6196C53.2953 19.4206 53.2079 19.1984 53.1658 18.9657C53.1238 18.733 53.128 18.4943 53.1783 18.2634C53.2285 18.0324 53.3238 17.8136 53.4587 17.6195L60.6978 7.65578C60.8407 7.46752 61.0193 7.30928 61.2235 7.19011C61.4276 7.07094 61.6533 6.99316 61.8876 6.96123C62.1219 6.9293 62.3602 6.94383 62.589 7.004C62.8178 7.06417 63.0325 7.1688 63.2209 7.31191L67.9307 10.7338C68.3234 11.0065 68.5919 11.4238 68.6773 11.894C68.7626 12.3642 68.6578 12.8488 68.3859 13.2415L61.1468 23.2053C60.8574 23.5852 60.4288 23.8346 59.9553 23.8988C59.4817 23.9629 59.0019 23.8365 58.6212 23.5473Z" fill="#EA7723"/>
<path fill-rule="evenodd" clip-rule="evenodd" d="M66.3724 37.2748L64.5734 31.7381C64.4955 31.5147 64.4623 31.2782 64.4758 31.042C64.4893 30.8058 64.5491 30.5747 64.6519 30.3617C64.7546 30.1487 64.8984 29.9582 65.0748 29.8008C65.2512 29.6435 65.4569 29.5225 65.6801 29.4448L77.3932 25.639C77.6194 25.5707 77.857 25.5476 78.0922 25.5712C78.3274 25.5948 78.5557 25.6645 78.764 25.7764C78.9723 25.8883 79.1566 26.0401 79.3063 26.2233C79.456 26.4064 79.5682 26.6173 79.6365 26.8438L81.4355 32.3805C81.5929 32.832 81.5649 33.3274 81.3576 33.758C81.1502 34.1885 80.7806 34.519 80.3298 34.6769L68.6167 38.4827C68.1592 38.62 67.6659 38.5699 67.2451 38.3434C66.8243 38.1169 66.5104 37.7326 66.3724 37.2748Z" fill="#EC1C66"/>
<path fill-rule="evenodd" clip-rule="evenodd" d="M28.1343 28.7205C29.3366 27.7093 31.131 27.8642 32.1422 29.0665L41.3799 40.05L46.4931 33.8905C47.4965 32.6817 49.2899 32.5153 50.4987 33.5187C51.7075 34.5222 51.8739 36.3156 50.8705 37.5244L43.5828 46.3031C43.0445 46.9517 42.2462 47.3281 41.4033 47.3308C40.5604 47.3335 39.7597 46.9622 39.2172 46.3172L27.7883 32.7284C26.7771 31.5261 26.932 29.7317 28.1343 28.7205Z" fill="white"/>
</svg>
