<?xml version="1.0" encoding="UTF-8"?><svg id="merck_300x600" xmlns="http://www.w3.org/2000/svg" width="300" height="600" viewBox="0 0 300 600"><defs><style>.cls-1{fill:none;}.cls-2{fill:#503291;}</style></defs><rect class="cls-1" width="300" height="600"/><g><path class="cls-2" d="M267.8,43.19c.86-.02,1.61-.41,2.15-.95,0,0,.38-.38,.85-.86,.28-.27,.64-.46,1.05-.52,.07,0,.27-.01,.29-.01,.14,0,.28,.01,.43,.03,.45,.05,.87,.18,1.26,.36l3.68,1.53s.9,.41,1.64,.41h.55c.16,0,.29-.15,.29-.32v-1.36c0-.94-.55-1.83-1.47-2.21l-.8-.33c-.67-.25-1.4-.74-1.78-1.1,0,0-.74-.88,.12-1.74l3.28-3.29c.43-.45,.65-1.03,.66-1.61,0,0,0-.25-.07-.49-.05-.18-.17-.34-.25-.42-.21-.21-.5-.32-.86-.33h-.52c-.86,.02-1.61,.39-2.15,.93-.02,.02-2.16,2.17-2.72,2.73l-3,3.02v-4.75c0-1.07-.87-1.94-1.94-1.94h-.83c-.22,0-.54,0-.69,.08-.13,.07-.13,.2-.13,.33v12.49c0,.16,.13,.29,.29,.29h.68Z"/><path class="cls-2" d="M252.24,41.57s-.69-.19-2.06-1.28c-.71-.56-1.24-.97-1.46-1.15,.25-.16,1.09-.5,1.84-1.36,.47-.54,.72-1.21,.72-2.05,0-.79-.23-1.54-.69-2.23-.45-.7-1.04-1.31-1.77-1.82-.72-.52-1.54-.92-2.44-1.23-.9-.3-1.78-.45-2.66-.45h-5.32c-.16,0-.29,.13-.29,.29v12.47c0,.12,0,.26,.13,.33,.17,.09,.53,.1,.74,.1,.3,0,.63-.03,.92-.13,.45-.15,.84-.46,1.13-.84,.5-.66,.63-1.42,.63-2.22v-5.4c0-.07,.01-.25,.05-.36,.04-.12,.1-.23,.1-.24,.41-.74,1.79-1.03,3.28-.66,1.99,.5,2.58,1.88,2.37,2.47-.22,.64-.94,1.04-1.84,1.04-.43,0-.87-.07-1.32-.22-.01,0-.3-.08-.52-.16-.1-.03-.31-.13-.46-.13s-.23,.12-.23,.36v1.41c0,.49,.19,.92,.49,1.17,.01,.01,4.35,3.43,4.35,3.43,.42,.31,.88,.48,1.37,.48h2.87c.2,0,.3-.13,.3-.37v-.91c0-.14-.11-.29-.21-.33"/><path class="cls-2" d="M234.88,39.76h-3.82c-.55,0-1.04-.14-1.52-.35-.41-.18-1.04-.72-1.23-.93-.35-.39-.62-.83-.82-1.34-.2-.51-.29-1.03-.29-1.57,0-.69,.2-1.22,.59-1.6,.05-.05,.21-.18,.41-.3,.19-.11,.41-.17,.55-.2,.23-.06,.48-.09,.75-.09s.51,.03,.74,.09c.43,.08,.85,.25,1.27,.52,.6,.38,1.23,.95,1.65,1.51h-3.98c-.24,0-.36,.1-.36,.31,0,.41,.06,.68,.23,1.01,.16,.33,.93,1.5,2.49,1.5h3.7c.65,0,1.1-.17,1.34-.52,.25-.34,.32-.64,.32-1.1,0-.76-.2-1.5-.6-2.3-.4-.8-.94-1.53-1.62-2.18-.68-.65-1.48-1.19-2.38-1.6-.9-.41-1.85-.62-2.84-.62h-5.44c-.16,0-.29,.13-.29,.29v5.42c0,1.02,.2,1.98,.59,2.88,.39,.91,.92,1.7,1.6,2.38,.67,.68,1.46,1.22,2.35,1.61,.89,.4,1.86,.61,2.88,.61h5.46c.16,0,.29-.13,.29-.29v-1.1c0-.64-.18-1.14-.54-1.5-.36-.36-.85-.54-1.48-.54"/><path class="cls-2" d="M222.53,31.94c0-1.07-.87-1.94-1.94-1.94h-2.05c-.1,0-.2,.04-.27,.11l-4.11,3.86c-1.41,1.32-3.31,2.07-5.39,2.07s-4.14-.81-5.57-2.23c0,0-3.03-2.84-3.05-2.87-.58-.54-1.38-.92-2.3-.94h-2.46c-.21,0-.39,.18-.39,.39v10.86c0,1.07,.87,1.94,1.94,1.94h1.26c.22,0,.39-.18,.39-.39v-3.86c0-1.01,.82-1.84,1.82-1.84,1.85,0,3.18,1.58,4.38,2.64,1.47,1.3,2.6,2.55,3.99,2.55s2.52-1.25,3.99-2.55c1.2-1.06,2.52-2.64,4.37-2.64,.99,0,1.81,.82,1.82,1.82v2.33c0,1.07,.87,1.94,1.94,1.94h.84c.22,0,.42,0,.42,0h0c.22,0,.39-.18,.39-.39v-10.86"/><path class="cls-2" d="M265.36,37.67h-2c-.73,0-1.21,.32-1.43,.95-.14,.41-.36,.74-.68,.99-.32,.25-.72,.37-1.21,.37-.46,0-.93-.13-1.41-.4-.48-.27-.91-.61-1.29-1.03-.38-.42-.69-.89-.93-1.42-.24-.52-.36-1.04-.36-1.56,0-.65,.2-1.18,.59-1.58,.39-.4,.89-.6,1.48-.6,.68,0,1.35,.25,2.02,.75,.28,.21,.56,.31,.87,.31s.63-.17,.97-.51l1.35-1.34c.09-.08,.11-.16,.09-.23-.03-.07-.08-.15-.17-.23-.73-.67-1.53-1.19-2.4-1.57-.87-.38-1.78-.57-2.73-.57h-5.34c-.21,0-.31,.12-.31,.36v5.33c0,1.03,.21,2.01,.63,2.93,.42,.93,.98,1.74,1.69,2.45,.71,.7,1.52,1.27,2.43,1.69,.91,.42,1.85,.63,2.82,.63,.78,0,1.51-.13,2.17-.4,.67-.26,1.24-.63,1.74-1.11,.49-.47,.88-1.04,1.18-1.7,.29-.66,.46-1.38,.51-2.15,.02-.24-.08-.36-.28-.36"/></g></svg>