<?xml version="1.0" encoding="UTF-8"?><svg id="cta" xmlns="http://www.w3.org/2000/svg" width="300" height="600" viewBox="0 0 300 600"><defs><style>.cls-1{fill:none;}.cls-2{fill:#ffc832;}.cls-3{fill:#503291;}</style></defs><rect class="cls-1" width="300" height="600"/><g><rect class="cls-3" x="62.5" y="100" width="175" height="60" rx="6" ry="6"/><g><path class="cls-2" d="M98.09,119.86c0,3.78-2.31,5.84-6.78,5.84s-6.78-2.02-6.78-5.84v-9.74h3.95v9.53c0,2.12,.84,3.13,2.83,3.13s2.83-.92,2.83-3.13v-9.53h3.95v9.74Z"/><path class="cls-2" d="M112.62,125.39h-3.72v-5.71c0-1.22-.13-2.06-.36-2.48-.23-.44-.8-.65-1.66-.65-.65,0-1.36,.21-2.14,.67v8.17h-3.7v-11.51h3.7v1.26c1.34-1.05,2.65-1.57,3.91-1.57,2.56,0,3.97,1.55,3.97,4.33v7.5Z"/><path class="cls-2" d="M119.17,125.39h-3.7v-15.96h3.7v15.96Z"/><path class="cls-2" d="M133.47,120.3h-8.44c.13,1.87,1.39,2.79,3.82,2.79,1.43,0,2.75-.44,3.99-1.32h.42v2.96c-1.53,.65-3.15,.97-4.81,.97-4.58,0-7.16-2.12-7.16-6s2.52-6.17,6.53-6.17c3.76,0,5.65,1.93,5.65,5.5v1.28Zm-3.67-2.16c-.02-1.53-.78-2.33-2.27-2.33s-2.39,.8-2.52,2.33h4.79Z"/><path class="cls-2" d="M142.52,124.17c-1.51,1.2-2.35,1.53-3.97,1.53-2.16,0-3.86-1.51-3.86-3.61,0-1.34,.5-2.35,1.55-3,1.03-.69,3.13-1.11,6.3-1.26v-.06c0-1.15-.84-1.68-3.07-1.68-.8,0-1.93,.27-3.44,.82h-.34v-2.79c1.62-.38,3.11-.57,4.54-.57,4.2,0,5.94,1.26,5.94,4.01v7.83h-3.65v-1.22Zm0-4.18c-1.72,.13-2.81,.34-3.32,.57-.5,.25-.76,.65-.76,1.24,0,1.05,.57,1.41,1.95,1.41,.76,0,1.47-.27,2.12-.82v-2.39Z"/><path class="cls-2" d="M148.28,121.75h.34c1.45,.99,2.96,1.49,4.54,1.49,1.43,0,2.14-.31,2.14-.94,0-.31-.15-.52-.46-.69-.29-.15-.99-.31-2.14-.48-2.9-.44-4.35-1.66-4.35-3.7,0-2.23,2.29-3.86,5.88-3.86,1.51,0,2.96,.27,4.33,.82v2.9h-.31c-1.3-.84-2.62-1.26-4.01-1.26-1.15,0-2.1,.31-2.1,.94,0,.31,.13,.55,.42,.71,.29,.15,1.07,.34,2.37,.55,1.64,.27,2.75,.71,3.32,1.3,.55,.59,.84,1.32,.84,2.2,0,2.37-2.29,3.97-5.98,3.97-1.78,0-3.38-.31-4.81-.92v-3.02Z"/><path class="cls-2" d="M172.55,125.39h-3.72v-5.71c0-1.22-.13-2.06-.36-2.48-.23-.44-.8-.65-1.66-.65-.65,0-1.36,.21-2.14,.67v8.17h-3.7v-15.96h3.7v5.71c1.34-1.05,2.65-1.57,3.91-1.57,2.56,0,3.97,1.55,3.97,4.33v7.5Z"/><path class="cls-2" d="M189.44,125.28c-.8,.21-1.76,.34-2.9,.34-2.86,0-4.26-1.01-4.26-3.86v-5.38h-1.51v-2.5h1.51v-3.3h3.7v3.3h3.46v2.5h-3.46v4.07c0,.84,.04,1.41,.1,1.68,.13,.55,.57,.97,1.64,.97,.46,0,.92-.1,1.41-.34h.31v2.52Z"/><path class="cls-2" d="M202.69,125.39h-3.72v-5.71c0-1.22-.13-2.06-.36-2.48-.23-.44-.8-.65-1.66-.65-.65,0-1.37,.21-2.14,.67v8.17h-3.7v-15.96h3.7v5.71c1.34-1.05,2.65-1.57,3.91-1.57,2.56,0,3.97,1.55,3.97,4.33v7.5Z"/><path class="cls-2" d="M216.88,120.3h-8.44c.13,1.87,1.39,2.79,3.82,2.79,1.43,0,2.75-.44,3.99-1.32h.42v2.96c-1.53,.65-3.15,.97-4.81,.97-4.58,0-7.16-2.12-7.16-6s2.52-6.17,6.53-6.17c3.76,0,5.65,1.93,5.65,5.5v1.28Zm-3.67-2.16c-.02-1.53-.78-2.33-2.27-2.33s-2.39,.8-2.52,2.33h4.79Z"/><path class="cls-2" d="M97.49,148.39h-8.94v-2.71h2.5v-9.85h-2.5v-2.71h8.94v2.71h-2.5v9.85h2.5v2.71Z"/><path class="cls-2" d="M111.22,148.39h-3.72v-5.75c0-1.28-.1-2.12-.34-2.5-.21-.4-.71-.59-1.53-.59-.55,0-1.22,.21-1.97,.67v8.17h-3.7v-11.51h3.7v1.26c1.32-1.05,2.58-1.57,3.74-1.57,1.6,0,2.71,.65,3.38,1.99,1.6-1.34,3-1.99,4.2-1.99,2.54,0,3.8,1.43,3.8,4.33v7.5h-3.7v-5.75c0-1.26-.1-2.1-.31-2.5-.23-.4-.73-.59-1.57-.59-.52,0-1.18,.21-1.97,.67v8.17Z"/><path class="cls-2" d="M125.36,152.61h-3.7v-15.73h3.7v1.2c1.26-1.03,2.52-1.51,3.78-1.51,2.9,0,4.54,2.29,4.54,5.9,0,1.81-.5,3.28-1.49,4.43-.99,1.13-2.25,1.72-3.76,1.72-1.05,0-2.08-.27-3.07-.8v4.79Zm0-6.84c.36,.15,.9,.21,1.62,.21,1.93,0,2.9-1.13,2.9-3.42s-.73-3.21-2.39-3.21c-.71,0-1.43,.21-2.12,.63v5.79Z"/><path class="cls-2" d="M134.97,142.63c0-3.86,2.37-6.11,6.3-6.11s6.32,2.37,6.32,6.11-2.31,6.11-6.32,6.11-6.3-2.33-6.3-6.11Zm6.3-3.55c-1.64,0-2.48,1.2-2.48,3.57s.84,3.53,2.52,3.53,2.44-1.18,2.44-3.53-.82-3.57-2.48-3.57Z"/><path class="cls-2" d="M148.94,144.75h.34c1.45,.99,2.96,1.49,4.54,1.49,1.43,0,2.14-.31,2.14-.94,0-.31-.15-.52-.46-.69-.29-.15-.99-.31-2.14-.48-2.9-.44-4.35-1.66-4.35-3.7,0-2.23,2.29-3.86,5.88-3.86,1.51,0,2.96,.27,4.33,.82v2.9h-.31c-1.3-.84-2.62-1.26-4.01-1.26-1.15,0-2.1,.31-2.1,.94,0,.31,.13,.55,.42,.71,.29,.15,1.07,.34,2.37,.55,1.64,.27,2.75,.71,3.32,1.3,.55,.59,.84,1.32,.84,2.2,0,2.37-2.29,3.97-5.98,3.97-1.78,0-3.38-.31-4.81-.92v-3.02Z"/><path class="cls-2" d="M160.87,144.75h.34c1.45,.99,2.96,1.49,4.54,1.49,1.43,0,2.14-.31,2.14-.94,0-.31-.15-.52-.46-.69-.29-.15-.99-.31-2.14-.48-2.9-.44-4.35-1.66-4.35-3.7,0-2.23,2.29-3.86,5.88-3.86,1.51,0,2.96,.27,4.33,.82v2.9h-.31c-1.3-.84-2.62-1.26-4.01-1.26-1.15,0-2.1,.31-2.1,.94,0,.31,.13,.55,.42,.71,.29,.15,1.07,.34,2.37,.55,1.64,.27,2.75,.71,3.32,1.3,.55,.59,.84,1.32,.84,2.2,0,2.37-2.29,3.97-5.98,3.97-1.78,0-3.38-.31-4.81-.92v-3.02Z"/><path class="cls-2" d="M177.37,135.24h-3.91v-2.81h3.91v2.81Zm-.11,13.14h-3.7v-11.51h3.7v11.51Z"/><path class="cls-2" d="M183.76,148.39h-3.53v-15.96h3.7v5.65c1.26-1.03,2.52-1.51,3.78-1.51,2.9,0,4.54,2.23,4.54,5.9,0,1.83-.5,3.3-1.51,4.43-.99,1.13-2.25,1.72-3.74,1.72-1.15,0-2.18-.27-3.07-.8l-.17,.57Zm.17-2.65c.44,.17,.97,.25,1.62,.25,1.93,0,2.9-1.15,2.9-3.44,0-2.04-.57-3.21-2.39-3.21-.71,0-1.43,.21-2.12,.63v5.77Z"/><path class="cls-2" d="M198.08,148.39h-3.7v-15.96h3.7v15.96Z"/><path class="cls-2" d="M212.38,143.3h-8.44c.13,1.87,1.39,2.79,3.82,2.79,1.43,0,2.75-.44,3.99-1.32h.42v2.96c-1.53,.65-3.15,.97-4.81,.97-4.58,0-7.16-2.12-7.16-6s2.52-6.17,6.53-6.17c3.76,0,5.65,1.93,5.65,5.5v1.28Zm-3.67-2.16c-.02-1.53-.78-2.33-2.27-2.33s-2.39,.8-2.52,2.33h4.79Z"/></g></g></svg>