<?xml version="1.0" encoding="UTF-8"?><svg id="text_01" xmlns="http://www.w3.org/2000/svg" width="300" height="600" viewBox="0 0 300 600"><defs><style>.cls-1{fill:none;}.cls-2{fill:#503291;}</style></defs><rect class="cls-1" width="300" height="600"/><g><path class="cls-2" d="M59.89,104.88h-4.54v11.72h-3.76v-11.72h-4.54v-2.82h12.84v2.82Z"/><path class="cls-2" d="M67.57,115.44c-1.44,1.14-2.24,1.46-3.78,1.46-2.06,0-3.68-1.44-3.68-3.44,0-1.28,.48-2.24,1.48-2.86,.98-.66,2.98-1.06,6-1.2v-.06c0-1.1-.8-1.6-2.92-1.6-.76,0-1.84,.26-3.28,.78h-.32v-2.66c1.54-.36,2.96-.54,4.32-.54,4,0,5.66,1.2,5.66,3.82v7.46h-3.48v-1.16Zm0-3.98c-1.64,.12-2.68,.32-3.16,.54-.48,.24-.72,.62-.72,1.18,0,1,.54,1.34,1.86,1.34,.72,0,1.4-.26,2.02-.78v-2.28Z"/><path class="cls-2" d="M82.03,108.98h-.3l-.44-.08c-.34-.06-.72-.06-1.12-.08-.92,0-1.78,.16-2.56,.44v7.34h-3.52v-10.96h3.52v1.6c1.24-1.1,2.44-1.64,3.6-1.64,.32,0,.58,0,.82,.04v3.34Z"/><path class="cls-2" d="M94.49,115.34c0,3.68-1.84,5.4-6.1,5.4-1.44,0-2.82-.16-4.16-.48v-2.74h.42c1.22,.44,2.3,.68,3.24,.68,2.2,0,3.08-.58,3.08-2.68v-.2c-.9,.76-1.96,1.12-3.12,1.12-3.2,0-4.8-1.86-4.8-5.6,0-1.72,.48-3.06,1.44-4.04,.96-.98,2.14-1.46,3.52-1.46,1.12,0,2.1,.26,2.94,.78l.14-.48h3.4v9.7Zm-3.52-7.16c-.46-.2-.96-.28-1.52-.28-1.86,0-2.78,1-2.78,3.02,0,2.16,.82,2.82,2.34,2.82,.68,0,1.34-.2,1.96-.6v-4.96Z"/><path class="cls-2" d="M108.41,111.76h-8.04c.12,1.78,1.32,2.66,3.64,2.66,1.36,0,2.62-.42,3.8-1.26h.4v2.82c-1.46,.62-3,.92-4.58,.92-4.36,0-6.82-2.02-6.82-5.72s2.4-5.88,6.22-5.88c3.58,0,5.38,1.84,5.38,5.24v1.22Zm-3.5-2.06c-.02-1.46-.74-2.22-2.16-2.22s-2.28,.76-2.4,2.22h4.56Z"/><path class="cls-2" d="M117.71,116.5c-.76,.2-1.68,.32-2.76,.32-2.72,0-4.06-.96-4.06-3.68v-5.12h-1.44v-2.38h1.44v-3.14h3.52v3.14h3.3v2.38h-3.3v3.88c0,.8,.04,1.34,.1,1.6,.12,.52,.54,.92,1.56,.92,.44,0,.88-.1,1.34-.32h.3v2.4Z"/><path class="cls-2" d="M135.69,109.2h-.5c-1-.9-2.06-1.36-3.18-1.36-1.88,0-2.92,1.28-2.92,3.32,0,2.14,.98,3.22,2.98,3.22,1.2,0,2.24-.44,3.12-1.34h.5v3c-1.2,.56-2.44,.86-3.72,.86-4.04,0-6.52-2-6.52-5.74s2.56-5.82,6.4-5.82c1.32,0,2.6,.28,3.84,.86v3Z"/><path class="cls-2" d="M144.45,115.44c-1.44,1.14-2.24,1.46-3.78,1.46-2.06,0-3.68-1.44-3.68-3.44,0-1.28,.48-2.24,1.48-2.86,.98-.66,2.98-1.06,6-1.2v-.06c0-1.1-.8-1.6-2.92-1.6-.76,0-1.84,.26-3.28,.78h-.32v-2.66c1.54-.36,2.96-.54,4.32-.54,4,0,5.66,1.2,5.66,3.82v7.46h-3.48v-1.16Zm0-3.98c-1.64,.12-2.68,.32-3.16,.54-.48,.24-.72,.62-.72,1.18,0,1,.54,1.34,1.86,1.34,.72,0,1.4-.26,2.02-.78v-2.28Z"/><path class="cls-2" d="M161.99,116.6h-3.54v-5.44c0-1.16-.12-1.96-.34-2.36-.22-.42-.76-.62-1.58-.62-.62,0-1.3,.2-2.04,.64v7.78h-3.52v-10.96h3.52v1.2c1.28-1,2.52-1.5,3.72-1.5,2.44,0,3.78,1.48,3.78,4.12v7.14Z"/><path class="cls-2" d="M174.45,109.2h-.5c-1-.9-2.06-1.36-3.18-1.36-1.88,0-2.92,1.28-2.92,3.32,0,2.14,.98,3.22,2.98,3.22,1.2,0,2.24-.44,3.12-1.34h.5v3c-1.2,.56-2.44,.86-3.72,.86-4.04,0-6.52-2-6.52-5.74s2.56-5.82,6.4-5.82c1.32,0,2.6,.28,3.84,.86v3Z"/><path class="cls-2" d="M187.37,111.76h-8.04c.12,1.78,1.32,2.66,3.64,2.66,1.36,0,2.62-.42,3.8-1.26h.4v2.82c-1.46,.62-3,.92-4.58,.92-4.36,0-6.82-2.02-6.82-5.72s2.4-5.88,6.22-5.88c3.58,0,5.38,1.84,5.38,5.24v1.22Zm-3.5-2.06c-.02-1.46-.74-2.22-2.16-2.22s-2.28,.76-2.4,2.22h4.56Z"/><path class="cls-2" d="M197.59,108.98h-.3l-.44-.08c-.34-.06-.72-.06-1.12-.08-.92,0-1.78,.16-2.56,.44v7.34h-3.52v-10.96h3.52v1.6c1.24-1.1,2.44-1.64,3.6-1.64,.32,0,.58,0,.82,.04v3.34Z"/><path class="cls-2" d="M223.53,105.64l-3.4,10.96h-3.74l-2.24-7.4-2.2,7.4h-3.78l-3.36-10.96h3.7l1.86,7.56,2.34-7.56h3.12l2.24,7.56,1.84-7.56h3.62Z"/><path class="cls-2" d="M229.03,104.08h-3.72v-2.68h3.72v2.68Zm-.1,12.52h-3.52v-10.96h3.52v10.96Z"/><path class="cls-2" d="M239.07,116.5c-.76,.2-1.68,.32-2.76,.32-2.72,0-4.06-.96-4.06-3.68v-5.12h-1.44v-2.38h1.44v-3.14h3.52v3.14h3.3v2.38h-3.3v3.88c0,.8,.04,1.34,.1,1.6,.12,.52,.54,.92,1.56,.92,.44,0,.88-.1,1.34-.32h.3v2.4Z"/><path class="cls-2" d="M251.99,116.6h-3.54v-5.44c0-1.16-.12-1.96-.34-2.36-.22-.42-.76-.62-1.58-.62-.62,0-1.3,.2-2.04,.64v7.78h-3.52v-15.2h3.52v5.44c1.28-1,2.52-1.5,3.72-1.5,2.44,0,3.78,1.48,3.78,4.12v7.14Z"/><path class="cls-2" d="M79.41,140.6h-3.54v-5.44c0-1.16-.12-1.96-.34-2.36-.22-.42-.76-.62-1.58-.62-.62,0-1.3,.2-2.04,.64v7.78h-3.52v-10.96h3.52v1.2c1.28-1,2.52-1.5,3.72-1.5,2.44,0,3.78,1.48,3.78,4.12v7.14Z"/><path class="cls-2" d="M89.07,139.44c-1.44,1.14-2.24,1.46-3.78,1.46-2.06,0-3.68-1.44-3.68-3.44,0-1.28,.48-2.24,1.48-2.86,.98-.66,2.98-1.06,6-1.2v-.06c0-1.1-.8-1.6-2.92-1.6-.76,0-1.84,.26-3.28,.78h-.32v-2.66c1.54-.36,2.96-.54,4.32-.54,4,0,5.66,1.2,5.66,3.82v7.46h-3.48v-1.16Zm0-3.98c-1.64,.12-2.68,.32-3.16,.54-.48,.24-.72,.62-.72,1.18,0,1,.54,1.34,1.86,1.34,.72,0,1.4-.26,2.02-.78v-2.28Z"/><path class="cls-2" d="M106.61,140.6h-3.54v-5.44c0-1.16-.12-1.96-.34-2.36-.22-.42-.76-.62-1.58-.62-.62,0-1.3,.2-2.04,.64v7.78h-3.52v-10.96h3.52v1.2c1.28-1,2.52-1.5,3.72-1.5,2.44,0,3.78,1.48,3.78,4.12v7.14Z"/><path class="cls-2" d="M108.83,135.12c0-3.68,2.26-5.82,6-5.82s6.02,2.26,6.02,5.82-2.2,5.82-6.02,5.82-6-2.22-6-5.82Zm6-3.38c-1.56,0-2.36,1.14-2.36,3.4s.8,3.36,2.4,3.36,2.32-1.12,2.32-3.36-.78-3.4-2.36-3.4Z"/><path class="cls-2" d="M130.03,135.54h-7.44v-2.82h7.44v2.82Z"/><path class="cls-2" d="M143.23,140.6h-3.52v-1.14c-1.16,.96-2.34,1.44-3.52,1.44-2.68,0-4.4-2.22-4.4-5.7,0-1.76,.48-3.16,1.44-4.24,.98-1.1,2.16-1.62,3.58-1.62,.92,0,1.9,.24,2.9,.74v-4.68h3.52v15.2Zm-3.52-8.4c-.46-.2-.96-.3-1.52-.3-1.86,0-2.78,1.08-2.78,3.26s.7,3.06,2.34,3.06c.68,0,1.34-.2,1.96-.64v-5.38Z"/><path class="cls-2" d="M157.15,135.76h-8.04c.12,1.78,1.32,2.66,3.64,2.66,1.36,0,2.62-.42,3.8-1.26h.4v2.82c-1.46,.62-3,.92-4.58,.92-4.36,0-6.82-2.02-6.82-5.72s2.4-5.88,6.22-5.88c3.58,0,5.38,1.84,5.38,5.24v1.22Zm-3.5-2.06c-.02-1.46-.74-2.22-2.16-2.22s-2.28,.76-2.4,2.22h4.56Z"/><path class="cls-2" d="M162.95,140.6h-3.52v-15.2h3.52v15.2Z"/><path class="cls-2" d="M169.69,128.08h-3.72v-2.68h3.72v2.68Zm-.1,12.52h-3.52v-10.96h3.52v10.96Z"/><path class="cls-2" d="M183.75,129.64l-4.22,10.96h-3.98l-4.2-10.96h3.72l2.54,7.54,2.5-7.54h3.64Z"/><path class="cls-2" d="M196.11,135.76h-8.04c.12,1.78,1.32,2.66,3.64,2.66,1.36,0,2.62-.42,3.8-1.26h.4v2.82c-1.46,.62-3,.92-4.58,.92-4.36,0-6.82-2.02-6.82-5.72s2.4-5.88,6.22-5.88c3.58,0,5.38,1.84,5.38,5.24v1.22Zm-3.5-2.06c-.02-1.46-.74-2.22-2.16-2.22s-2.28,.76-2.4,2.22h4.56Z"/><path class="cls-2" d="M206.33,132.98h-.3l-.44-.08c-.34-.06-.72-.06-1.12-.08-.92,0-1.78,.16-2.56,.44v7.34h-3.52v-10.96h3.52v1.6c1.24-1.1,2.44-1.64,3.6-1.64,.32,0,.58,0,.82,.04v3.34Z"/><path class="cls-2" d="M218.87,135.76h-8.04c.12,1.78,1.32,2.66,3.64,2.66,1.36,0,2.62-.42,3.8-1.26h.4v2.82c-1.46,.62-3,.92-4.58,.92-4.36,0-6.82-2.02-6.82-5.72s2.4-5.88,6.22-5.88c3.58,0,5.38,1.84,5.38,5.24v1.22Zm-3.5-2.06c-.02-1.46-.74-2.22-2.16-2.22s-2.28,.76-2.4,2.22h4.56Z"/><path class="cls-2" d="M231.81,140.6h-3.52v-1.14c-1.16,.96-2.34,1.44-3.52,1.44-2.68,0-4.4-2.22-4.4-5.7,0-1.76,.48-3.16,1.44-4.24,.98-1.1,2.16-1.62,3.58-1.62,.92,0,1.9,.24,2.9,.74v-4.68h3.52v15.2Zm-3.52-8.4c-.46-.2-.96-.3-1.52-.3-1.86,0-2.78,1.08-2.78,3.26s.7,3.06,2.34,3.06c.68,0,1.34-.2,1.96-.64v-5.38Z"/><path class="cls-2" d="M106.42,164.6h-3.54v-5.48c0-1.22-.1-2.02-.32-2.38-.2-.38-.68-.56-1.46-.56-.52,0-1.16,.2-1.88,.64v7.78h-3.52v-10.96h3.52v1.2c1.26-1,2.46-1.5,3.56-1.5,1.52,0,2.58,.62,3.22,1.9,1.52-1.28,2.86-1.9,4-1.9,2.42,0,3.62,1.36,3.62,4.12v7.14h-3.52v-5.48c0-1.2-.1-2-.3-2.38-.22-.38-.7-.56-1.5-.56-.5,0-1.12,.2-1.88,.64v7.78Z"/><path class="cls-2" d="M127.46,159.76h-8.04c.12,1.78,1.32,2.66,3.64,2.66,1.36,0,2.62-.42,3.8-1.26h.4v2.82c-1.46,.62-3,.92-4.58,.92-4.36,0-6.82-2.02-6.82-5.72s2.4-5.88,6.22-5.88c3.58,0,5.38,1.84,5.38,5.24v1.22Zm-3.5-2.06c-.02-1.46-.74-2.22-2.16-2.22s-2.28,.76-2.4,2.22h4.56Z"/><path class="cls-2" d="M140.4,164.6h-3.52v-1.14c-1.16,.96-2.34,1.44-3.52,1.44-2.68,0-4.4-2.22-4.4-5.7,0-1.76,.48-3.16,1.44-4.24,.98-1.1,2.16-1.62,3.58-1.62,.92,0,1.9,.24,2.9,.74v-4.68h3.52v15.2Zm-3.52-8.4c-.46-.2-.96-.3-1.52-.3-1.86,0-2.78,1.08-2.78,3.26s.7,3.06,2.34,3.06c.68,0,1.34-.2,1.96-.64v-5.38Z"/><path class="cls-2" d="M147.14,152.08h-3.72v-2.68h3.72v2.68Zm-.1,12.52h-3.52v-10.96h3.52v10.96Z"/><path class="cls-2" d="M159.6,157.2h-.5c-1-.9-2.06-1.36-3.18-1.36-1.88,0-2.92,1.28-2.92,3.32,0,2.14,.98,3.22,2.98,3.22,1.2,0,2.24-.44,3.12-1.34h.5v3c-1.2,.56-2.44,.86-3.72,.86-4.04,0-6.52-2-6.52-5.74s2.56-5.82,6.4-5.82c1.32,0,2.6,.28,3.84,.86v3Z"/><path class="cls-2" d="M165.34,152.08h-3.72v-2.68h3.72v2.68Zm-.1,12.52h-3.52v-10.96h3.52v10.96Z"/><path class="cls-2" d="M179.38,164.6h-3.54v-5.44c0-1.16-.12-1.96-.34-2.36-.22-.42-.76-.62-1.58-.62-.62,0-1.3,.2-2.04,.64v7.78h-3.52v-10.96h3.52v1.2c1.28-1,2.52-1.5,3.72-1.5,2.44,0,3.78,1.48,3.78,4.12v7.14Z"/><path class="cls-2" d="M193.2,159.76h-8.04c.12,1.78,1.32,2.66,3.64,2.66,1.36,0,2.62-.42,3.8-1.26h.4v2.82c-1.46,.62-3,.92-4.58,.92-4.36,0-6.82-2.02-6.82-5.72s2.4-5.88,6.22-5.88c3.58,0,5.38,1.84,5.38,5.24v1.22Zm-3.5-2.06c-.02-1.46-.74-2.22-2.16-2.22s-2.28,.76-2.4,2.22h4.56Z"/><path class="cls-2" d="M201.02,160.7h-3.44v-3.3c2.46-.6,3.68-1.64,3.68-3.1,0-1.2-.8-1.8-2.42-1.8-.98,0-2.06,.36-3.2,1.08h-.38v-2.98c1.46-.56,2.96-.84,4.56-.84,3.2,0,5.24,1.56,5.24,3.86s-1.28,3.8-4.04,4.84v2.24Zm.28,3.9h-3.94v-2.58h3.94v2.58Z"/></g></svg>