<?xml version="1.0" encoding="UTF-8"?><svg id="text_02" xmlns="http://www.w3.org/2000/svg" width="300" height="600" viewBox="0 0 300 600"><defs><style>.cls-1{fill:none;}.cls-2{fill:#503291;}</style></defs><rect class="cls-1" width="300" height="600"/><g><path class="cls-2" d="M88.91,102.06l-3.92,14.54h-4.14l-2.62-9.48-2.52,9.48h-4.16l-3.92-14.54h3.92l2.24,10,2.68-10h3.74l2.54,10,2.34-10h3.82Z"/><path class="cls-2" d="M101.14,111.76h-8.04c.12,1.78,1.32,2.66,3.64,2.66,1.36,0,2.62-.42,3.8-1.26h.4v2.82c-1.46,.62-3,.92-4.58,.92-4.36,0-6.82-2.02-6.82-5.72s2.4-5.88,6.22-5.88c3.58,0,5.38,1.84,5.38,5.24v1.22Zm-3.5-2.06c-.02-1.46-.74-2.22-2.16-2.22s-2.28,.76-2.4,2.22h4.56Z"/><path class="cls-2" d="M108.08,101.4l-2.84,5.76h-2.28l1.54-5.76h3.58Z"/><path class="cls-2" d="M114.16,116.6h-3.52v-15.2h3.52v15.2Z"/><path class="cls-2" d="M120.8,116.6h-3.52v-15.2h3.52v15.2Z"/><path class="cls-2" d="M141.58,116.6h-3.54v-5.44c0-1.16-.12-1.96-.34-2.36-.22-.42-.76-.62-1.58-.62-.62,0-1.3,.2-2.04,.64v7.78h-3.52v-15.2h3.52v5.44c1.28-1,2.52-1.5,3.72-1.5,2.44,0,3.78,1.48,3.78,4.12v7.14Z"/><path class="cls-2" d="M155.4,111.76h-8.04c.12,1.78,1.32,2.66,3.64,2.66,1.36,0,2.62-.42,3.8-1.26h.4v2.82c-1.46,.62-3,.92-4.58,.92-4.36,0-6.82-2.02-6.82-5.72s2.4-5.88,6.22-5.88c3.58,0,5.38,1.84,5.38,5.24v1.22Zm-3.5-2.06c-.02-1.46-.74-2.22-2.16-2.22s-2.28,.76-2.4,2.22h4.56Z"/><path class="cls-2" d="M161.2,116.6h-3.52v-15.2h3.52v15.2Z"/><path class="cls-2" d="M167.84,120.63h-3.52v-14.98h3.52v1.14c1.2-.98,2.4-1.44,3.6-1.44,2.76,0,4.32,2.18,4.32,5.62,0,1.72-.48,3.12-1.42,4.22-.94,1.08-2.14,1.64-3.58,1.64-1,0-1.98-.26-2.92-.76v4.56Zm0-6.52c.34,.14,.86,.2,1.54,.2,1.84,0,2.76-1.08,2.76-3.26s-.7-3.06-2.28-3.06c-.68,0-1.36,.2-2.02,.6v5.52Z"/><path class="cls-2" d="M189.7,112.72l2.5-7.08h3.6l-6.08,14.98h-3.82l1.74-4.1-4.26-10.88h3.68l2.64,7.08Z"/><path class="cls-2" d="M196.56,111.12c0-3.68,2.26-5.82,6-5.82s6.02,2.26,6.02,5.82-2.2,5.82-6.02,5.82-6-2.22-6-5.82Zm6-3.38c-1.56,0-2.36,1.14-2.36,3.4s.8,3.36,2.4,3.36,2.32-1.12,2.32-3.36-.78-3.4-2.36-3.4Z"/><path class="cls-2" d="M221.82,116.6h-3.5v-1.22c-.82,.62-1.5,1.02-2,1.22s-1.06,.3-1.72,.3c-2.44,0-3.78-1.4-3.78-4.12v-7.14h3.52v5.44c0,1.38,.16,2.22,.44,2.54,.28,.3,.78,.44,1.48,.44s1.36-.22,2.06-.66v-7.76h3.5v10.96Z"/><path class="cls-2" d="M232.88,108.98h-.3l-.44-.08c-.34-.06-.72-.06-1.12-.08-.92,0-1.78,.16-2.56,.44v7.34h-3.52v-10.96h3.52v1.6c1.24-1.1,2.44-1.64,3.6-1.64,.32,0,.58,0,.82,.04v3.34Z"/><path class="cls-2" d="M33.23,137.14h.32c1.38,.94,2.82,1.42,4.32,1.42,1.36,0,2.04-.3,2.04-.9,0-.3-.14-.5-.44-.66-.28-.14-.94-.3-2.04-.46-2.76-.42-4.14-1.58-4.14-3.52,0-2.12,2.18-3.68,5.6-3.68,1.44,0,2.82,.26,4.12,.78v2.76h-.3c-1.24-.8-2.5-1.2-3.82-1.2-1.1,0-2,.3-2,.9,0,.3,.12,.52,.4,.68,.28,.14,1.02,.32,2.26,.52,1.56,.26,2.62,.68,3.16,1.24,.52,.56,.8,1.26,.8,2.1,0,2.26-2.18,3.78-5.7,3.78-1.7,0-3.22-.3-4.58-.88v-2.88Z"/><path class="cls-2" d="M55.07,133.2h-.5c-1-.9-2.06-1.36-3.18-1.36-1.88,0-2.92,1.28-2.92,3.32,0,2.14,.98,3.22,2.98,3.22,1.2,0,2.24-.44,3.12-1.34h.5v3c-1.2,.56-2.44,.86-3.72,.86-4.04,0-6.52-2-6.52-5.74s2.56-5.82,6.4-5.82c1.32,0,2.6,.28,3.84,.86v3Z"/><path class="cls-2" d="M60.81,128.08h-3.72v-2.68h3.72v2.68Zm-.1,12.52h-3.52v-10.96h3.52v10.96Z"/><path class="cls-2" d="M74.63,135.76h-8.04c.12,1.78,1.32,2.66,3.64,2.66,1.36,0,2.62-.42,3.8-1.26h.4v2.82c-1.46,.62-3,.92-4.58,.92-4.36,0-6.82-2.02-6.82-5.72s2.4-5.88,6.22-5.88c3.58,0,5.38,1.84,5.38,5.24v1.22Zm-3.5-2.06c-.02-1.46-.74-2.22-2.16-2.22s-2.28,.76-2.4,2.22h4.56Z"/><path class="cls-2" d="M87.93,140.6h-3.54v-5.44c0-1.16-.12-1.96-.34-2.36-.22-.42-.76-.62-1.58-.62-.62,0-1.3,.2-2.04,.64v7.78h-3.52v-10.96h3.52v1.2c1.28-1,2.52-1.5,3.72-1.5,2.44,0,3.78,1.48,3.78,4.12v7.14Z"/><path class="cls-2" d="M100.39,133.2h-.5c-1-.9-2.06-1.36-3.18-1.36-1.88,0-2.92,1.28-2.92,3.32,0,2.14,.98,3.22,2.98,3.22,1.2,0,2.24-.44,3.12-1.34h.5v3c-1.2,.56-2.44,.86-3.72,.86-4.04,0-6.52-2-6.52-5.74s2.56-5.82,6.4-5.82c1.32,0,2.6,.28,3.84,.86v3Z"/><path class="cls-2" d="M113.31,135.76h-8.04c.12,1.78,1.32,2.66,3.64,2.66,1.36,0,2.62-.42,3.8-1.26h.4v2.82c-1.46,.62-3,.92-4.58,.92-4.36,0-6.82-2.02-6.82-5.72s2.4-5.88,6.22-5.88c3.58,0,5.38,1.84,5.38,5.24v1.22Zm-3.5-2.06c-.02-1.46-.74-2.22-2.16-2.22s-2.28,.76-2.4,2.22h4.56Z"/><path class="cls-2" d="M125.75,140.6h-3.52v-15.2h3.52v15.2Z"/><path class="cls-2" d="M139.67,135.76h-8.04c.12,1.78,1.32,2.66,3.64,2.66,1.36,0,2.62-.42,3.8-1.26h.4v2.82c-1.46,.62-3,.92-4.58,.92-4.36,0-6.82-2.02-6.82-5.72s2.4-5.88,6.22-5.88c3.58,0,5.38,1.84,5.38,5.24v1.22Zm-3.5-2.06c-.02-1.46-.74-2.22-2.16-2.22s-2.28,.76-2.4,2.22h4.56Z"/><path class="cls-2" d="M148.59,139.44c-1.44,1.14-2.24,1.46-3.78,1.46-2.06,0-3.68-1.44-3.68-3.44,0-1.28,.48-2.24,1.48-2.86,.98-.66,2.98-1.06,6-1.2v-.06c0-1.1-.8-1.6-2.92-1.6-.76,0-1.84,.26-3.28,.78h-.32v-2.66c1.54-.36,2.96-.54,4.32-.54,4,0,5.66,1.2,5.66,3.82v7.46h-3.48v-1.16Zm0-3.98c-1.64,.12-2.68,.32-3.16,.54-.48,.24-.72,.62-.72,1.18,0,1,.54,1.34,1.86,1.34,.72,0,1.4-.26,2.02-.78v-2.28Z"/><path class="cls-2" d="M165.77,140.6h-3.52v-1.14c-1.16,.96-2.34,1.44-3.52,1.44-2.68,0-4.4-2.22-4.4-5.7,0-1.76,.48-3.16,1.44-4.24,.98-1.1,2.16-1.62,3.58-1.62,.92,0,1.9,.24,2.9,.74v-4.68h3.52v15.2Zm-3.52-8.4c-.46-.2-.96-.3-1.52-.3-1.86,0-2.78,1.08-2.78,3.26s.7,3.06,2.34,3.06c.68,0,1.34-.2,1.96-.64v-5.38Z"/><path class="cls-2" d="M182.55,140.5c-.76,.2-1.68,.32-2.76,.32-2.72,0-4.06-.96-4.06-3.68v-5.12h-1.44v-2.38h1.44v-3.14h3.52v3.14h3.3v2.38h-3.3v3.88c0,.8,.04,1.34,.1,1.6,.12,.52,.54,.92,1.56,.92,.44,0,.88-.1,1.34-.32h.3v2.4Z"/><path class="cls-2" d="M195.47,140.6h-3.54v-5.44c0-1.16-.12-1.96-.34-2.36-.22-.42-.76-.62-1.58-.62-.62,0-1.3,.2-2.04,.64v7.78h-3.52v-15.2h3.52v5.44c1.28-1,2.52-1.5,3.72-1.5,2.44,0,3.78,1.48,3.78,4.12v7.14Z"/><path class="cls-2" d="M209.29,135.76h-8.04c.12,1.78,1.32,2.66,3.64,2.66,1.36,0,2.62-.42,3.8-1.26h.4v2.82c-1.46,.62-3,.92-4.58,.92-4.36,0-6.82-2.02-6.82-5.72s2.4-5.88,6.22-5.88c3.58,0,5.38,1.84,5.38,5.24v1.22Zm-3.5-2.06c-.02-1.46-.74-2.22-2.16-2.22s-2.28,.76-2.4,2.22h4.56Z"/><path class="cls-2" d="M235.71,129.64l-3.4,10.96h-3.74l-2.24-7.4-2.2,7.4h-3.78l-3.36-10.96h3.7l1.86,7.56,2.34-7.56h3.12l2.24,7.56,1.84-7.56h3.62Z"/><path class="cls-2" d="M244.23,139.44c-1.44,1.14-2.24,1.46-3.78,1.46-2.06,0-3.68-1.44-3.68-3.44,0-1.28,.48-2.24,1.48-2.86,.98-.66,2.98-1.06,6-1.2v-.06c0-1.1-.8-1.6-2.92-1.6-.76,0-1.84,.26-3.28,.78h-.32v-2.66c1.54-.36,2.96-.54,4.32-.54,4,0,5.66,1.2,5.66,3.82v7.46h-3.48v-1.16Zm0-3.98c-1.64,.12-2.68,.32-3.16,.54-.48,.24-.72,.62-.72,1.18,0,1,.54,1.34,1.86,1.34,.72,0,1.4-.26,2.02-.78v-2.28Z"/><path class="cls-2" d="M255.51,136.72l2.5-7.08h3.6l-6.08,14.98h-3.82l1.74-4.1-4.26-10.88h3.68l2.64,7.08Z"/><path class="cls-2" d="M266.11,140.6h-3.66v-3.84h3.66v3.84Z"/></g></svg>