<?xml version="1.0" encoding="UTF-8"?><svg id="sigmaaldrich_300x600" xmlns="http://www.w3.org/2000/svg" width="300" height="600" xmlns:xlink="http://www.w3.org/1999/xlink" viewBox="0 0 300 600"><defs><style>.cls-1{fill:none;}.cls-2{clip-path:url(#clippath);}.cls-3{fill:#e61e50;}.cls-4{fill:#ffc832;}</style><clipPath id="clippath"><rect id="SVGID" class="cls-1" width="300" height="600"/></clipPath></defs><g class="cls-2"><path class="cls-3" d="M297.73,717.95c-.51,8.71-5.72,10.56-11.58,4.08l-148.75-163.75c-5.87-6.47-4.42-15.25,3.2-19.51l159.15-86.09c7.62-4.26,13.45-.61,12.94,8.11l-14.96,257.16Z"/></g><g><path class="cls-4" d="M213.28,557.08c0,.82-.66,1.56-1.56,1.56-1.28,0-1.48-.68-1.48-1.36,0-.38,.12-.9,.76-1.2l2.28-1.08v2.08Zm-1.28-7.89c-2.18,0-3.67,1.42-3.67,3.29v.18c0,.3,.24,.56,.56,.56h1.06c.3,0,.56-.26,.56-.56v-.18c0-.78,.56-1.3,1.38-1.3,.88,0,1.4,.5,1.4,1.22,0,.58-.26,.8-1.02,1.12l-2.44,1c-1.2,.5-1.96,1.4-1.96,3.05,0,2.16,1.66,2.86,2.87,2.86,1.04,0,1.98-.42,2.54-1.22v.44c0,.3,.26,.56,.58,.56h1.08c.32,0,.58-.26,.58-.56v-6.99c0-1.92-1.14-3.47-3.51-3.47"/><path class="cls-4" d="M203.65,549.19c-1.16,0-2.2,.64-2.59,1.54-.4-.78-1.3-1.54-2.44-1.54s-2.08,.62-2.47,1.54v-.64c0-.3-.26-.56-.58-.56h-1.1c-.32,0-.58,.26-.58,.56v9.56c0,.3,.26,.56,.58,.56h1.1c.32,0,.58-.26,.58-.56v-6.87c0-.82,.56-1.6,1.44-1.6s1.42,.64,1.42,1.6v6.87c0,.3,.26,.56,.58,.56h1.1c.32,0,.58-.26,.58-.56v-6.87c0-.82,.48-1.6,1.36-1.6s1.42,.64,1.42,1.6v6.87c0,.3,.26,.56,.58,.56h1.1c.32,0,.58-.26,.58-.56v-7.5c0-1.54-1.1-2.96-2.64-2.96"/><path class="cls-4" d="M174.15,545.62c-2.51,0-4.15,1.5-4.15,4.01,0,1.14,.28,2.37,1.5,3.17l3.15,2.06c.7,.46,1.14,.74,1.14,1.56v.3c0,1.1-.58,1.78-1.68,1.78-1,0-1.68-.76-1.68-1.78v-.82c0-.3-.26-.56-.58-.56h-1.28c-.32,0-.58,.26-.58,.56v.82c0,2.55,1.76,3.89,4.11,3.89s4.15-1.38,4.15-3.89c0-1.85-.26-2.63-1.78-3.61l-2.59-1.68c-1-.64-1.42-.92-1.42-1.72v-.2c0-1.1,.58-1.78,1.68-1.78s1.68,.76,1.68,1.78v.44c0,.3,.26,.56,.58,.56h1.28c.32,0,.58-.26,.58-.56v-.44c0-2.58-1.74-3.89-4.11-3.89"/><path class="cls-4" d="M189.54,556.62c0,.82-.56,1.6-1.44,1.6s-1.42-.64-1.42-1.6v-3.63c0-.94,.52-1.6,1.42-1.6s1.44,.78,1.44,1.6v3.63Zm1.68-7.09h-1.1c-.32,0-.58,.26-.58,.56v.64c-.4-.92-1.2-1.54-2.35-1.54-1.42,0-2.76,1.24-2.76,2.76v5.31c0,1.68,1.28,2.95,2.76,2.95,1.16,0,1.96-.62,2.35-1.54v2.74c0,.82-.46,1.6-1.42,1.6-.88,0-1.4-.66-1.4-1.6,0-.3-.26-.56-.6-.56h-1.06c-.32,0-.58,.26-.58,.56,.04,2.02,1.68,3.59,3.65,3.59s3.65-1.7,3.65-3.75v-11.16c0-.3-.26-.56-.58-.56"/><path class="cls-4" d="M181.76,546.06h-1.1c-.32,0-.58,.26-.58,.56v.84c0,.3,.26,.56,.58,.56h1.1c.32,0,.58-.26,.58-.56v-.84c0-.3-.26-.56-.58-.56"/><path class="cls-4" d="M181.76,549.53h-1.1c-.32,0-.58,.26-.58,.56v9.56c0,.3,.26,.56,.58,.56h1.1c.32,0,.58-.26,.58-.56v-9.56c0-.3-.26-.56-.58-.56"/><path class="cls-4" d="M223.7,553.88h-5.81c-.3,0-.56,.26-.56,.58v.8c0,.32,.26,.58,.56,.58h5.81c.3,0,.56-.26,.56-.58v-.8c0-.32-.26-.58-.56-.58"/><path class="cls-4" d="M260.09,549.53h-1.1c-.32,0-.58,.26-.58,.56v9.56c0,.3,.26,.56,.58,.56h1.1c.32,0,.58-.26,.58-.56v-9.56c0-.3-.26-.56-.58-.56"/><path class="cls-4" d="M254.78,549.19c-1.1,0-2,.7-2.43,1.38v-.48c0-.3-.26-.56-.58-.56h-1.1c-.32,0-.58,.26-.58,.56v9.56c0,.3,.26,.56,.58,.56h1.1c.32,0,.58-.26,.58-.56v-7.11c0-.78,.56-1.36,1.24-1.36,.94,0,1.16,.58,1.16,1.36v.28c0,.3,.26,.56,.58,.56h1.1c.32,0,.58-.26,.58-.56v-1.26c0-1.4-1.04-2.38-2.22-2.38"/><path class="cls-4" d="M260.09,546.06h-1.1c-.32,0-.58,.26-.58,.56v.84c0,.3,.26,.56,.58,.56h1.1c.32,0,.58-.26,.58-.56v-.84c0-.3-.26-.56-.58-.56"/><path class="cls-4" d="M276.17,549.19c-1.15,0-2.07,.62-2.47,1.54v-4.11c0-.3-.26-.56-.58-.56h-1.1c-.32,0-.58,.26-.58,.56v13.03c0,.3,.26,.56,.58,.56h1.1c.32,0,.58-.26,.58-.56v-6.87c0-.82,.56-1.6,1.44-1.6s1.42,.64,1.42,1.6v6.87c0,.3,.26,.56,.58,.56h1.1c.32,0,.58-.26,.58-.56v-7.5c0-1.54-1.1-2.96-2.63-2.96"/><path class="cls-4" d="M266.16,551.19c.92,0,1.44,.64,1.44,1.44,0,.3,.26,.56,.58,.56h1.1c.32,0,.58-.26,.58-.56,0-1.92-1.5-3.44-3.69-3.44s-3.69,1.56-3.69,3.52v4.33c0,1.96,1.52,3.51,3.69,3.51s3.69-1.56,3.69-3.51v-.16c0-.3-.26-.56-.58-.56h-1.1c-.32,0-.58,.26-.58,.56v.16c0,.82-.52,1.52-1.44,1.52-.86,0-1.44-.68-1.44-1.52v-4.33c0-.84,.58-1.52,1.44-1.52"/><path class="cls-4" d="M282.76,559.96c-1.12,0-2.02-.89-2.02-2.01s.9-2,2.02-2,2,.89,2,2-.9,2.01-2,2.01m0-4.26c-1.25,0-2.26,1.01-2.26,2.25s1.01,2.26,2.26,2.26,2.24-1.02,2.24-2.26-1-2.25-2.24-2.25"/><path class="cls-4" d="M283.14,557.39c0,.2-.16,.32-.34,.32h-.37v-.87h.37c.18,0,.34,.13,.34,.32v.23Zm.13,.53c.21-.03,.4-.25,.4-.56v-.29c0-.4-.35-.66-.66-.66h-.97c-.08,0-.14,.06-.14,.14v2.79c0,.08,.07,.14,.14,.14h.28c.08,0,.14-.06,.14-.14v-1.21h.38c.23,0,.3,.15,.3,.35v.86c0,.08,.07,.14,.14,.14h.28c.08,0,.14-.06,.14-.14v-.85c0-.33-.18-.52-.43-.57"/><path class="cls-4" d="M245.73,556.96c0,.82-.56,1.6-1.44,1.6s-1.42-.64-1.42-1.6v-3.97c0-.94,.52-1.6,1.42-1.6s1.44,.78,1.44,1.6v3.97Zm1.68-10.9h-1.1c-.32,0-.58,.26-.58,.56v4.11c-.4-.92-1.2-1.54-2.36-1.54-1.42,0-2.76,1.24-2.76,2.76v5.65c0,1.68,1.28,2.96,2.76,2.96,1.16,0,1.95-.62,2.36-1.54v.64c0,.3,.26,.56,.58,.56h1.1c.32,0,.58-.26,.58-.56v-13.03c0-.3-.26-.56-.58-.56"/><path class="cls-4" d="M238.05,546.06h-1.1c-.32,0-.58,.26-.58,.56v13.03c0,.3,.26,.56,.58,.56h1.1c.32,0,.58-.26,.58-.56v-13.03c0-.3-.26-.56-.58-.56"/><path class="cls-4" d="M228.71,555.18l1.46-6.63,1.46,6.63h-2.91Zm6.27,4.27l-3.01-13.03c-.04-.2-.22-.36-.46-.36h-2.67c-.24,0-.42,.16-.46,.36l-3.01,13.03c-.04,.16-.06,.32-.06,.34,0,.22,.18,.42,.44,.42h1.48c.24,0,.38-.2,.44-.44l.6-2.51h3.83l.6,2.51c.06,.24,.2,.44,.44,.44h1.48c.26,0,.44-.2,.44-.42,0-.02-.02-.18-.06-.34"/></g></svg>